<svg id="visual" viewBox="0 0 1920 1200" width="1920" height="1200" xmlns="http://www.w3.org/2000/svg" xmlns:xlink="http://www.w3.org/1999/xlink" version="1.1"><rect width="1920" height="1200" fill="#001829"></rect><g><g transform="translate(1462 424)"><path d="M0 -279.5L218.6 -174.3L272.5 62.2L121.3 251.9L-121.3 251.9L-272.5 62.2L-218.6 -174.3Z" stroke="#564d9b" fill="none" stroke-width="3"></path></g><g transform="translate(147 289)"><path d="M0 -84L65.7 -52.4L81.9 18.7L36.4 75.7L-36.4 75.7L-81.9 18.7L-65.7 -52.4Z" stroke="#564d9b" fill="none" stroke-width="3"></path></g><g transform="translate(695 647)"><path d="M0 -209L163.4 -130.3L203.8 46.5L90.7 188.3L-90.7 188.3L-203.8 46.5L-163.4 -130.3Z" stroke="#564d9b" fill="none" stroke-width="3"></path></g><g transform="translate(1078 14)"><path d="M0 -191L149.3 -119.1L186.2 42.5L82.9 172.1L-82.9 172.1L-186.2 42.5L-149.3 -119.1Z" stroke="#564d9b" fill="none" stroke-width="3"></path></g><g transform="translate(1267 1064)"><path d="M0 -201L157.1 -125.3L196 44.7L87.2 181.1L-87.2 181.1L-196 44.7L-157.1 -125.3Z" stroke="#564d9b" fill="none" stroke-width="3"></path></g></g></svg>