<svg id="visual" viewBox="0 0 1920 1200" width="1920" height="1200" xmlns="http://www.w3.org/2000/svg" xmlns:xlink="http://www.w3.org/1999/xlink" version="1.1"><rect x="0" y="0" width="1920" height="1200" fill="#29425a"></rect><defs><linearGradient id="grad1_0" x1="37.5%" y1="100%" x2="100%" y2="0%"><stop offset="17.999999999999996%" stop-color="#1a2530" stop-opacity="1"></stop><stop offset="82%" stop-color="#1a2530" stop-opacity="1"></stop></linearGradient></defs><defs><linearGradient id="grad1_1" x1="37.5%" y1="100%" x2="100%" y2="0%"><stop offset="17.999999999999996%" stop-color="#1a2530" stop-opacity="1"></stop><stop offset="82%" stop-color="#1c2a37" stop-opacity="1"></stop></linearGradient></defs><defs><linearGradient id="grad1_2" x1="37.5%" y1="100%" x2="100%" y2="0%"><stop offset="17.999999999999996%" stop-color="#1f2e3e" stop-opacity="1"></stop><stop offset="82%" stop-color="#1c2a37" stop-opacity="1"></stop></linearGradient></defs><defs><linearGradient id="grad1_3" x1="37.5%" y1="100%" x2="100%" y2="0%"><stop offset="17.999999999999996%" stop-color="#1f2e3e" stop-opacity="1"></stop><stop offset="82%" stop-color="#213344" stop-opacity="1"></stop></linearGradient></defs><defs><linearGradient id="grad1_4" x1="37.5%" y1="100%" x2="100%" y2="0%"><stop offset="17.999999999999996%" stop-color="#24384c" stop-opacity="1"></stop><stop offset="82%" stop-color="#213344" stop-opacity="1"></stop></linearGradient></defs><defs><linearGradient id="grad1_5" x1="37.5%" y1="100%" x2="100%" y2="0%"><stop offset="17.999999999999996%" stop-color="#24384c" stop-opacity="1"></stop><stop offset="82%" stop-color="#263d53" stop-opacity="1"></stop></linearGradient></defs><defs><linearGradient id="grad1_6" x1="37.5%" y1="100%" x2="100%" y2="0%"><stop offset="17.999999999999996%" stop-color="#29425a" stop-opacity="1"></stop><stop offset="82%" stop-color="#263d53" stop-opacity="1"></stop></linearGradient></defs><defs><linearGradient id="grad2_0" x1="0%" y1="100%" x2="62.5%" y2="0%"><stop offset="17.999999999999996%" stop-color="#1a2530" stop-opacity="1"></stop><stop offset="82%" stop-color="#1a2530" stop-opacity="1"></stop></linearGradient></defs><defs><linearGradient id="grad2_1" x1="0%" y1="100%" x2="62.5%" y2="0%"><stop offset="17.999999999999996%" stop-color="#1c2a37" stop-opacity="1"></stop><stop offset="82%" stop-color="#1a2530" stop-opacity="1"></stop></linearGradient></defs><defs><linearGradient id="grad2_2" x1="0%" y1="100%" x2="62.5%" y2="0%"><stop offset="17.999999999999996%" stop-color="#1c2a37" stop-opacity="1"></stop><stop offset="82%" stop-color="#1f2e3e" stop-opacity="1"></stop></linearGradient></defs><defs><linearGradient id="grad2_3" x1="0%" y1="100%" x2="62.5%" y2="0%"><stop offset="17.999999999999996%" stop-color="#213344" stop-opacity="1"></stop><stop offset="82%" stop-color="#1f2e3e" stop-opacity="1"></stop></linearGradient></defs><defs><linearGradient id="grad2_4" x1="0%" y1="100%" x2="62.5%" y2="0%"><stop offset="17.999999999999996%" stop-color="#213344" stop-opacity="1"></stop><stop offset="82%" stop-color="#24384c" stop-opacity="1"></stop></linearGradient></defs><defs><linearGradient id="grad2_5" x1="0%" y1="100%" x2="62.5%" y2="0%"><stop offset="17.999999999999996%" stop-color="#263d53" stop-opacity="1"></stop><stop offset="82%" stop-color="#24384c" stop-opacity="1"></stop></linearGradient></defs><defs><linearGradient id="grad2_6" x1="0%" y1="100%" x2="62.5%" y2="0%"><stop offset="17.999999999999996%" stop-color="#263d53" stop-opacity="1"></stop><stop offset="82%" stop-color="#29425a" stop-opacity="1"></stop></linearGradient></defs><g transform="translate(1920, 1200)"><path d="M-1018.9 0C-990.5 -176.2 -962.1 -352.4 -880.7 -508.5C-799.4 -664.6 -665.1 -800.7 -509.4 -882.4C-353.8 -964.1 -176.9 -991.5 0 -1018.9L0 0Z" fill="#283f56"></path><path d="M-873.3 0C-849 -151 -824.7 -302 -754.9 -435.9C-685.2 -569.7 -570 -686.3 -436.7 -756.3C-303.3 -826.4 -151.6 -849.8 0 -873.3L0 0Z" fill="#253b4f"></path><path d="M-727.8 0C-707.5 -125.9 -687.2 -251.7 -629.1 -363.2C-571 -474.7 -475 -571.9 -363.9 -630.3C-252.7 -688.6 -126.4 -708.2 0 -727.8L0 0Z" fill="#233648"></path><path d="M-582.2 0C-566 -100.7 -549.8 -201.4 -503.3 -290.6C-456.8 -379.8 -380 -457.5 -291.1 -504.2C-202.2 -550.9 -101.1 -566.6 0 -582.2L0 0Z" fill="#203141"></path><path d="M-436.7 0C-424.5 -75.5 -412.3 -151 -377.5 -217.9C-342.6 -284.8 -285 -343.1 -218.3 -378.2C-151.6 -413.2 -75.8 -424.9 0 -436.7L0 0Z" fill="#1e2c3a"></path><path d="M-291.1 0C-283 -50.3 -274.9 -100.7 -251.6 -145.3C-228.4 -189.9 -190 -228.8 -145.6 -252.1C-101.1 -275.5 -50.5 -283.3 0 -291.1L0 0Z" fill="#1b2733"></path><path d="M-145.6 0C-141.5 -25.2 -137.4 -50.3 -125.8 -72.6C-114.2 -94.9 -95 -114.4 -72.8 -126.1C-50.5 -137.7 -25.3 -141.6 0 -145.6L0 0Z" fill="#1a2530"></path></g><g transform="translate(0, 0)"><path d="M1018.9 0C991.8 177.5 964.7 355 882.4 509.4C800 663.9 662.3 795.3 506 876.4C349.7 957.5 174.9 988.2 0 1018.9L0 0Z" fill="#283f56"></path><path d="M873.3 0C850.1 152.1 826.9 304.3 756.3 436.7C685.7 569.1 567.7 681.7 433.7 751.2C299.8 820.7 149.9 847 0 873.3L0 0Z" fill="#253b4f"></path><path d="M727.8 0C708.4 126.8 689.1 253.5 630.3 363.9C571.4 474.2 473.1 568.1 361.4 626C249.8 683.9 124.9 705.8 0 727.8L0 0Z" fill="#233648"></path><path d="M582.2 0C566.7 101.4 551.3 202.8 504.2 291.1C457.1 379.4 378.4 454.5 289.1 500.8C199.8 547.1 99.9 564.7 0 582.2L0 0Z" fill="#203141"></path><path d="M436.7 0C425.1 76.1 413.5 152.1 378.2 218.3C342.9 284.5 283.8 340.9 216.9 375.6C149.9 410.4 74.9 423.5 0 436.7L0 0Z" fill="#1e2c3a"></path><path d="M291.1 0C283.4 50.7 275.6 101.4 252.1 145.6C228.6 189.7 189.2 227.2 144.6 250.4C99.9 273.6 50 282.3 0 291.1L0 0Z" fill="#1b2733"></path><path d="M145.6 0C141.7 25.4 137.8 50.7 126.1 72.8C114.3 94.8 94.6 113.6 72.3 125.2C50 136.8 25 141.2 0 145.6L0 0Z" fill="#1a2530"></path></g></svg>