<svg id="visual" viewBox="0 0 900 600" width="900" height="600" xmlns="http://www.w3.org/2000/svg" xmlns:xlink="http://www.w3.org/1999/xlink" version="1.1"><g stroke-width="1" stroke-linejoin="bevel"><path d="M400 337L237 351L311 479Z" fill="#74a564" stroke="#74a564"></path><path d="M237 351L210 502L311 479Z" fill="#619c65" stroke="#619c65"></path><path d="M345 600L488 490L311 479Z" fill="#619c65" stroke="#619c65"></path><path d="M311 479L488 490L400 337Z" fill="#74a564" stroke="#74a564"></path><path d="M210 502L345 600L311 479Z" fill="#3f8967" stroke="#3f8967"></path><path d="M536 242L396 164L400 337Z" fill="#619c65" stroke="#619c65"></path><path d="M400 337L396 164L237 351Z" fill="#74a564" stroke="#74a564"></path><path d="M488 490L536 242L400 337Z" fill="#0c5659" stroke="#0c5659"></path><path d="M396 164L210 135L237 351Z" fill="#3f8967" stroke="#3f8967"></path><path d="M0 483L136 600L210 502Z" fill="#0c5659" stroke="#0c5659"></path><path d="M0 483L210 502L237 351Z" fill="#11424b" stroke="#11424b"></path><path d="M210 502L136 600L345 600Z" fill="#0e605f" stroke="#0e605f"></path><path d="M345 600L557 600L488 490Z" fill="#509366" stroke="#509366"></path><path d="M488 490L704 442L536 242Z" fill="#0e605f" stroke="#0e605f"></path><path d="M210 135L0 320L237 351Z" fill="#227565" stroke="#227565"></path><path d="M0 320L0 483L237 351Z" fill="#11424b" stroke="#11424b"></path><path d="M708 184L579 156L536 242Z" fill="#0e605f" stroke="#0e605f"></path><path d="M536 242L579 156L396 164Z" fill="#227565" stroke="#227565"></path><path d="M396 164L411 0L210 135Z" fill="#509366" stroke="#509366"></path><path d="M557 600L704 442L488 490Z" fill="#3f8967" stroke="#3f8967"></path><path d="M0 483L0 600L136 600Z" fill="#0e605f" stroke="#0e605f"></path><path d="M210 135L0 173L0 320Z" fill="#3f8967" stroke="#3f8967"></path><path d="M579 156L411 0L396 164Z" fill="#166b62" stroke="#166b62"></path><path d="M210 135L126 0L0 173Z" fill="#166b62" stroke="#166b62"></path><path d="M704 442L733 357L536 242Z" fill="#3f8967" stroke="#3f8967"></path><path d="M557 600L695 600L704 442Z" fill="#307f66" stroke="#307f66"></path><path d="M900 471L900 322L733 357Z" fill="#227565" stroke="#227565"></path><path d="M411 0L126 0L210 135Z" fill="#509366" stroke="#509366"></path><path d="M733 357L708 184L536 242Z" fill="#74a564" stroke="#74a564"></path><path d="M579 156L577 0L411 0Z" fill="#619c65" stroke="#619c65"></path><path d="M708 184L577 0L579 156Z" fill="#227565" stroke="#227565"></path><path d="M126 0L0 0L0 173Z" fill="#509366" stroke="#509366"></path><path d="M900 100L753 0L708 184Z" fill="#307f66" stroke="#307f66"></path><path d="M708 184L753 0L577 0Z" fill="#227565" stroke="#227565"></path><path d="M900 471L733 357L704 442Z" fill="#0e605f" stroke="#0e605f"></path><path d="M733 357L900 322L708 184Z" fill="#0e605f" stroke="#0e605f"></path><path d="M695 600L900 471L704 442Z" fill="#11424b" stroke="#11424b"></path><path d="M695 600L900 600L900 471Z" fill="#307f66" stroke="#307f66"></path><path d="M900 322L900 100L708 184Z" fill="#11424b" stroke="#11424b"></path><path d="M900 100L900 0L753 0Z" fill="#11424b" stroke="#11424b"></path></g></svg>